<svg xmlns="http://www.w3.org/2000/svg" width="512" height="512" viewBox="0 0 512 512">
  <rect width="512" height="512" rx="96" fill="#0f172a"/>
  <!-- Map pin body -->
  <path d="M256 460 C256 460 380 300 380 210 A124 124 0 1 0 132 210 C132 300 256 460 256 460Z" fill="#06b6d4"/>
  <path d="M256 450 C256 450 370 296 370 210 A114 114 0 1 0 142 210 C142 296 256 450 256 450Z" fill="#0e7490"/>
  <!-- Inner circle -->
  <circle cx="256" cy="200" r="90" fill="#0f172a"/>
  <!-- Taco shell -->
  <path d="M176 220 Q216 140 256 160 Q296 140 336 220 Q306 240 256 244 Q206 240 176 220Z" fill="#f59e0b"/>
  <path d="M180 218 Q218 148 256 166 Q294 148 332 218 Q304 234 256 238 Q208 234 180 218Z" fill="#fbbf24"/>
  <!-- Lettuce -->
  <path d="M192 214 Q210 190 230 210 Q245 188 260 208 Q275 186 292 210 Q305 192 322 216 Q290 230 256 232 Q222 230 192 214Z" fill="#4ade80"/>
  <!-- Tomato bits -->
  <circle cx="220" cy="208" r="6" fill="#ef4444"/>
  <circle cx="256" cy="202" r="5" fill="#ef4444"/>
  <circle cx="290" cy="208" r="6" fill="#ef4444"/>
  <!-- Meat -->
  <path d="M198 218 Q220 200 240 216 Q256 198 272 216 Q290 200 314 218 Q290 228 256 232 Q222 228 198 218Z" fill="#92400e"/>
</svg>
